<?xml version="1.0" encoding="UTF-8"?> <!-- Generator: Adobe Illustrator 24.2.1, SVG Export Plug-In . SVG Version: 6.00 Build 0) --> <svg xmlns="http://www.w3.org/2000/svg" xmlns:xlink="http://www.w3.org/1999/xlink" version="1.1" id="Layer_1" x="0px" y="0px" viewBox="0 0 444 152" style="enable-background:new 0 0 444 152;" xml:space="preserve"> <style type="text/css"> .st0{fill:url(#SVGID_1_);stroke:#4680A9;stroke-miterlimit:10;} .st1{fill:#2A2B2C;stroke:#4680A9;stroke-miterlimit:10;} .st2{font-family:'BebasNeue-Regular';} .st3{font-size:72.3889px;} .st4{fill:none;} </style> <g> <linearGradient id="SVGID_1_" gradientUnits="userSpaceOnUse" x1="222.7378" y1="75.742" x2="439.4974" y2="75.742"> <stop offset="0" style="stop-color:#CCE0F4"></stop> <stop offset="6.405089e-02" style="stop-color:#C3DCF2"></stop> <stop offset="0.1706" style="stop-color:#A9D2EE"></stop> <stop offset="0.3066" style="stop-color:#80C2E7"></stop> <stop offset="0.4649" style="stop-color:#47ACDE"></stop> <stop offset="0.5674" style="stop-color:#1E9CD7"></stop> <stop offset="0.8652" style="stop-color:#0075BE"></stop> <stop offset="0.9944" style="stop-color:#4680A9"></stop> </linearGradient> <path class="st0" d="M290.1,80.2c-14.3-3.4-28.7-1.9-41.8,15.3c-1.5,2-3.9,2.7-6.2,2c-3.9-1.2-13-14.8-15.7-18.2 c-8.8,29.4-3.1,59.3,28.4,69c26.6,8.2,49.5-1.8,57.7-29c0.3-1.1,0.4-2.2,0.6-3.4L290.1,80.2L290.1,80.2z M425.1,1.3 c-5.3-1.6-11-0.8-15.9,1.5c-91.1,43-99,42.3-104.7,61.4c-1.5,4.9-1.7,9.9-1.1,14.7l16.7,25.9c2.3,1.4,4.8,2.7,7.5,3.5 c21.8,6.7,39.2-5.6,101.3-68.6c4.1-4.3,8-9.1,9.8-14.9C441.8,14.5,434.9,4.3,425.1,1.3z"></path> <text transform="matrix(0.9832 0 0 1 0.3667 64.2085)"><tspan x="0" y="0" class="st1 st2 st3">Williams Specialty</tspan><tspan x="0" y="86.9" class="st1 st2 st3">Company</tspan></text> </g> <rect x="0.1" class="st4" width="442.8" height="151.6"></rect> </svg> 